<?xml version="1.0" encoding="UTF-8" standalone="no"?>
<!DOCTYPE svg PUBLIC "-//W3C//DTD SVG 1.1//EN"
 "http://www.w3.org/Graphics/SVG/1.1/DTD/svg11.dtd">
<!-- Generated by graphviz version 2.47.3 (20210619.1520)
 -->
<!-- Title: dependencies Pages: 1 -->
<svg width="912pt" height="247pt"
 viewBox="0.00 0.00 912.00 246.80" xmlns="http://www.w3.org/2000/svg" xmlns:xlink="http://www.w3.org/1999/xlink">
<g id="graph0" class="graph" transform="scale(1 1) rotate(0) translate(4 242.8)">
<title>dependencies</title>
<polygon fill="white" stroke="transparent" points="-4,4 -4,-242.8 908,-242.8 908,4 -4,4"/>
<text text-anchor="middle" x="452" y="-8.2" font-family="sans-serif" font-size="14.00">dependencies</text>
<g id="clust1" class="cluster">
<title>cluster_AppModule</title>
<polygon fill="none" stroke="black" stroke-dasharray="1,5" points="8,-32.8 8,-230.8 896,-230.8 896,-32.8 8,-32.8"/>
</g>
<g id="clust2" class="cluster">
<title>cluster_AppModule_declarations</title>
<polygon fill="none" stroke="black" points="328,-40.8 328,-92.8 888,-92.8 888,-40.8 328,-40.8"/>
</g>
<g id="clust10" class="cluster">
<title>cluster_AppModule_providers</title>
<polygon fill="none" stroke="black" points="168,-40.8 168,-92.8 320,-92.8 320,-40.8 168,-40.8"/>
</g>
<g id="clust7" class="cluster">
<title>cluster_AppModule_imports</title>
<polygon fill="none" stroke="black" points="16,-40.8 16,-92.8 160,-92.8 160,-40.8 16,-40.8"/>
</g>
<g id="clust9" class="cluster">
<title>cluster_AppModule_bootstrap</title>
<polygon fill="none" stroke="black" points="403,-170.8 403,-222.8 527,-222.8 527,-170.8 403,-170.8"/>
</g>
<!-- AppComponent -->
<g id="node1" class="node">
<title>AppComponent</title>
<polygon fill="#ffffb3" stroke="black" points="879.94,-84.8 774.06,-84.8 774.06,-48.8 879.94,-48.8 879.94,-84.8"/>
<text text-anchor="middle" x="827" y="-62.6" font-family="Times,serif" font-size="14.00">AppComponent</text>
</g>
<!-- AppModule -->
<g id="node5" class="node">
<title>AppModule</title>
<polygon fill="#8dd3c7" stroke="black" points="506.66,-149.8 503.66,-153.8 482.66,-153.8 479.66,-149.8 423.34,-149.8 423.34,-113.8 506.66,-113.8 506.66,-149.8"/>
<text text-anchor="middle" x="465" y="-127.6" font-family="Times,serif" font-size="14.00">AppModule</text>
</g>
<!-- AppComponent&#45;&gt;AppModule -->
<g id="edge1" class="edge">
<title>AppComponent&#45;&gt;AppModule</title>
<path fill="none" stroke="black" d="M827,-85.08C827,-106.12 827,-137.8 827,-137.8 827,-137.8 516.88,-137.8 516.88,-137.8"/>
<polygon fill="black" stroke="black" points="516.88,-134.3 506.88,-137.8 516.88,-141.3 516.88,-134.3"/>
</g>
<!-- DashboardComponent -->
<g id="node2" class="node">
<title>DashboardComponent</title>
<polygon fill="#ffffb3" stroke="black" points="755.97,-84.8 614.03,-84.8 614.03,-48.8 755.97,-48.8 755.97,-84.8"/>
<text text-anchor="middle" x="685" y="-62.6" font-family="Times,serif" font-size="14.00">DashboardComponent</text>
</g>
<!-- DashboardComponent&#45;&gt;AppModule -->
<g id="edge2" class="edge">
<title>DashboardComponent&#45;&gt;AppModule</title>
<path fill="none" stroke="black" d="M685,-84.82C685,-102.17 685,-125.8 685,-125.8 685,-125.8 516.9,-125.8 516.9,-125.8"/>
<polygon fill="black" stroke="black" points="516.9,-122.3 506.9,-125.8 516.9,-129.3 516.9,-122.3"/>
</g>
<!-- DragdropDirective -->
<g id="node3" class="node">
<title>DragdropDirective</title>
<polygon fill="#ffffb3" stroke="black" points="595.73,-84.8 474.27,-84.8 474.27,-48.8 595.73,-48.8 595.73,-84.8"/>
<text text-anchor="middle" x="535" y="-62.6" font-family="Times,serif" font-size="14.00">DragdropDirective</text>
</g>
<!-- DragdropDirective&#45;&gt;AppModule -->
<g id="edge3" class="edge">
<title>DragdropDirective&#45;&gt;AppModule</title>
<path fill="none" stroke="black" d="M490.48,-84.91C490.48,-84.91 490.48,-103.79 490.48,-103.79"/>
<polygon fill="black" stroke="black" points="486.98,-103.79 490.48,-113.79 493.98,-103.79 486.98,-103.79"/>
</g>
<!-- ImportComponent -->
<g id="node4" class="node">
<title>ImportComponent</title>
<polygon fill="#ffffb3" stroke="black" points="455.94,-84.8 336.06,-84.8 336.06,-48.8 455.94,-48.8 455.94,-84.8"/>
<text text-anchor="middle" x="396" y="-62.6" font-family="Times,serif" font-size="14.00">ImportComponent</text>
</g>
<!-- ImportComponent&#45;&gt;AppModule -->
<g id="edge4" class="edge">
<title>ImportComponent&#45;&gt;AppModule</title>
<path fill="none" stroke="black" d="M439.44,-84.91C439.44,-84.91 439.44,-103.79 439.44,-103.79"/>
<polygon fill="black" stroke="black" points="435.94,-103.79 439.44,-113.79 442.94,-103.79 435.94,-103.79"/>
</g>
<!-- AppComponent  -->
<g id="node7" class="node">
<title>AppComponent </title>
<polygon fill="#80b1d3" stroke="black" points="519.44,-214.8 410.56,-214.8 410.56,-178.8 519.44,-178.8 519.44,-214.8"/>
<text text-anchor="middle" x="465" y="-192.6" font-family="Times,serif" font-size="14.00">AppComponent </text>
</g>
<!-- AppModule&#45;&gt;AppComponent  -->
<g id="edge6" class="edge">
<title>AppModule&#45;&gt;AppComponent </title>
<path fill="none" stroke="black" stroke-dasharray="1,5" d="M465,-149.91C465,-149.91 465,-168.79 465,-168.79"/>
<polygon fill="black" stroke="black" points="461.5,-168.79 465,-178.79 468.5,-168.79 461.5,-168.79"/>
</g>
<!-- AppRoutingModule -->
<g id="node6" class="node">
<title>AppRoutingModule</title>
<polygon fill="#8dd3c7" stroke="black" points="152.27,-84.8 149.27,-88.8 128.27,-88.8 125.27,-84.8 23.73,-84.8 23.73,-48.8 152.27,-48.8 152.27,-84.8"/>
<text text-anchor="middle" x="88" y="-62.6" font-family="Times,serif" font-size="14.00">AppRoutingModule</text>
</g>
<!-- AppRoutingModule&#45;&gt;AppModule -->
<g id="edge5" class="edge">
<title>AppRoutingModule&#45;&gt;AppModule</title>
<path fill="none" stroke="black" d="M88,-85.08C88,-106.12 88,-137.8 88,-137.8 88,-137.8 413.21,-137.8 413.21,-137.8"/>
<polygon fill="black" stroke="black" points="413.21,-141.3 423.21,-137.8 413.21,-134.3 413.21,-141.3"/>
</g>
<!-- UploadService -->
<g id="node8" class="node">
<title>UploadService</title>
<ellipse fill="#fdb462" stroke="black" cx="244" cy="-66.8" rx="68.34" ry="18"/>
<text text-anchor="middle" x="244" y="-62.6" font-family="Times,serif" font-size="14.00">UploadService</text>
</g>
<!-- UploadService&#45;&gt;AppModule -->
<g id="edge7" class="edge">
<title>UploadService&#45;&gt;AppModule</title>
<path fill="none" stroke="black" d="M244,-84.82C244,-102.17 244,-125.8 244,-125.8 244,-125.8 413.17,-125.8 413.17,-125.8"/>
<polygon fill="black" stroke="black" points="413.17,-129.3 423.17,-125.8 413.17,-122.3 413.17,-129.3"/>
</g>
</g>
</svg>
